<svg xmlns="http://www.w3.org/2000/svg" xml:space="preserve" viewBox="0 0 666.67 666.67"><defs><clipPath id="a"><path d="M0 500h500V0H0z"/></clipPath></defs><g clip-path="url(#a)" transform="matrix(1.3333 0 0 -1.3333 0 666.67)"><path fill="white" d="M250 485c-31.707 0-62.487-6.219-91.485-18.484-27.989-11.838-53.116-28.777-74.685-50.346s-38.508-46.697-50.346-74.685C21.219 312.487 15 281.707 15 250s6.219-62.487 18.484-91.484c11.838-27.99 28.777-53.117 50.346-74.686s46.696-38.508 74.685-50.347C187.513 21.219 218.293 15 250 15s62.487 6.219 91.484 18.483c27.99 11.839 53.117 28.778 74.686 50.347s38.508 46.696 50.347 74.686C478.781 187.513 485 218.293 485 250s-6.219 62.487-18.483 91.485c-11.839 27.988-28.778 53.116-50.347 74.685s-46.696 38.508-74.686 50.346C312.487 478.781 281.707 485 250 485m0-40c107.7 0 195-87.305 195-195S357.695 55 250 55C142.3 55 55 142.305 55 250s87.304 195 195 195" class="catch-logo"/><path fill="white" d="M308.75 212.5c-20.711 0-37.5 16.789-37.5 37.5s16.789 37.5 37.5 37.5 37.5-16.789 37.5-37.5-16.79-37.5-37.5-37.5M221.25 288.75c-20.711 0-37.5 16.789-37.5 37.5s16.789 37.5 37.5 37.5 37.5-16.789 37.5-37.5-16.789-37.5-37.5-37.5M221.25 136.25c-20.711 0-37.5 16.789-37.5 37.5s16.789 37.5 37.5 37.5 37.5-16.789 37.5-37.5-16.789-37.5-37.5-37.5" class="catch-logo"/></g></svg>

