<svg xmlns="http://www.w3.org/2000/svg" xml:space="preserve" viewBox="0 0 666.667 666.667"><defs><clipPath id="a" clipPathUnits="userSpaceOnUse"><path d="M0 500h500V0H0Z"/></clipPath></defs><g clip-path="url(#a)" transform="matrix(1.33333 0 0 -1.33333 0 666.667)"><path fill="white" d="M0 0c-71.682 0-130 58.317-130 130 0 71.682 58.318 130 130 130 71.683 0 130-58.318 130-130C130 58.317 71.683 0 0 0" style="fill-opacity:1;fill-rule:nonzero;stroke:none" transform="translate(250 120)"/><path fill="white" d="M0 0c-82.843 0-150-67.157-150-150S-82.843-300 0-300s150 67.157 150 150S82.843 0 0 0m0-40c29.382 0 57.006-11.442 77.781-32.218C98.558-92.995 110-120.618 110-150c0-29.382-11.442-57.006-32.219-77.781C57.006-248.558 29.382-260 0-260c-29.382 0-57.005 11.442-77.782 32.219C-98.558-207.006-110-179.382-110-150c0 29.382 11.442 57.005 32.218 77.782C-57.005-51.442-29.382-40 0-40" style="fill-opacity:1;fill-rule:nonzero;stroke:none" transform="translate(250 400)"/><path fill="white" d="M0 0c-31.707 0-62.487-6.219-91.485-18.484-27.989-11.838-53.116-28.777-74.685-50.346-21.569-21.569-38.508-46.697-50.346-74.685C-228.781-172.513-235-203.293-235-235s6.219-62.487 18.484-91.484c11.838-27.99 28.777-53.117 50.346-74.686 21.569-21.569 46.696-38.508 74.685-50.347C-62.487-463.781-31.707-470 0-470s62.487 6.219 91.484 18.483c27.99 11.839 53.117 28.778 74.686 50.347 21.569 21.569 38.508 46.696 50.347 74.686C228.781-297.487 235-266.707 235-235c0 31.707-6.219 62.487-18.483 91.485-11.839 27.988-28.778 53.116-50.347 74.685-21.569 21.569-46.696 38.508-74.686 50.346C62.487-6.219 31.707 0 0 0m0-40c107.695 0 195-87.305 195-195S107.695-430 0-430c-107.696 0-195 87.305-195 195S-107.696-40 0-40" style="fill-opacity:1;fill-rule:nonzero;stroke:none" transform="translate(250 485)"/></g></svg>

